<?xml version="1.0"?>
<svg xmlns="http://www.w3.org/2000/svg" id="Line" height="512px" viewBox="0 0 64 64" width="512px" class=""><g><link xmlns="" type="text/css" id="dark-mode" rel="stylesheet" href=""/><style xmlns="" type="text/css" id="dark-mode-custom-style"/><path d="m60 30.5h-5.465l-2.871-4.306a2 2 0 0 0 -3.328 0l-2.871 4.306h-23.465a3 3 0 0 0 -3 3v26a3 3 0 0 0 3 3h38a3 3 0 0 0 3-3v-26a3 3 0 0 0 -3-3zm-7 23h-24a1 1 0 0 1 0-2h24a1 1 0 0 1 0 2zm0-6h-24a1 1 0 0 1 0-2h24a1 1 0 0 1 0 2zm0-6h-24a1 1 0 0 1 0-2h24a1 1 0 0 1 0 2z" fill="#c4a2fc" data-original="#C4A2FC" class="active-path" style="fill:#3498DB" data-old_color="#c4a2fc"/><g fill="#151a6a"><path d="m48 1.5h-44a3 3 0 0 0 -3 3v32a3 3 0 0 0 3 3h6.465l4.035 6.059a3 3 0 0 0 4.992 0l4.043-6.059h24.465a3 3 0 0 0 3-3v-32a3 3 0 0 0 -3-3zm1 35a1 1 0 0 1 -1 1h-25a1 1 0 0 0 -.832.445l-4.336 6.5a1.027 1.027 0 0 1 -1.664 0l-4.336-6.5a1 1 0 0 0 -.832-.445h-7a1 1 0 0 1 -1-1v-32a1 1 0 0 1 1-1h44a1 1 0 0 1 1 1z" data-original="#151A6A" class="" data-old_color="#151A6A" style="fill:#3498DB"/><path d="m41.051 13.48h-30.033a1 1 0 0 0 0 2h30.033a1 1 0 0 0 0-2z" data-original="#151A6A" class="" data-old_color="#151A6A" style="fill:#3498DB"/><path d="m41.051 19.422h-30.033a1 1 0 0 0 0 2h30.033a1 1 0 0 0 0-2z" data-original="#151A6A" class="" data-old_color="#151A6A" style="fill:#3498DB"/><path d="m41.051 25.626h-30.082a1 1 0 1 0 0 2h30.082a1 1 0 0 0 0-2z" data-original="#151A6A" class="" data-old_color="#151A6A" style="fill:#3498DB"/></g></g> </svg>
